<svg width="116" height="116" viewBox="0 0 116 116" fill="none" xmlns="http://www.w3.org/2000/svg">
<circle cx="57.5154" cy="57.511" r="57.511" fill="#500E29"/>
<path d="M60.3413 35.8457C61.5375 34.3265 63.8399 34.3265 65.036 35.8457L65.3647 36.2631C65.8447 36.8729 66.5432 37.2719 67.3123 37.3757L67.8034 37.442C69.746 37.7043 70.9139 39.7348 70.1639 41.5459L70.0111 41.9149C69.708 42.6468 69.708 43.4692 70.0111 44.2011L70.1639 44.5701C70.9139 46.3812 69.746 48.4117 67.8034 48.674L67.3123 48.7403C66.5432 48.8441 65.8447 49.2431 65.3647 49.8529L65.036 50.2703C63.8399 51.7896 61.5375 51.7896 60.3413 50.2703L60.0127 49.8529C59.5326 49.2431 58.8341 48.8441 58.065 48.7403L57.574 48.674C55.6313 48.4117 54.4634 46.3812 55.2135 44.5701L55.3663 44.2011C55.6694 43.4692 55.6694 42.6468 55.3663 41.9149L55.2135 41.5459C54.4634 39.7348 55.6313 37.7043 57.574 37.442L58.065 37.3757C58.8341 37.2719 59.5326 36.8729 60.0127 36.2631L60.3413 35.8457Z" fill="#500E29"/>
<path d="M51.4223 42.5701C49.7904 36.5067 51.8581 24.1496 73.1848 23.228C73.891 31.6888 70.5273 47.4025 51.4223 42.5701Z" fill="#CFFF64"/>
<circle cx="42.6576" cy="57.3593" r="9.79092" fill="#CFFF64"/>
<circle cx="56.6459" cy="57.3593" r="9.79092" fill="#CFFF64"/>
<circle cx="49.977" cy="71.1317" r="9.79092" fill="#CFFF64"/>
<circle cx="63.9652" cy="71.1317" r="9.79092" fill="#CFFF64"/>
<circle cx="56.6459" cy="82.1073" r="9.79092" fill="#CFFF64"/>
<circle cx="70.6342" cy="57.3593" r="9.79092" fill="#CFFF64"/>
</svg>
