<svg width="116" height="116" viewBox="0 0 116 116" fill="none" xmlns="http://www.w3.org/2000/svg">
<circle cx="57.5154" cy="57.511" r="57.511" fill="#500E29"/>
<path d="M60.3413 35.8457C61.5375 34.3265 63.8399 34.3265 65.036 35.8457L65.3647 36.2631C65.8447 36.8729 66.5432 37.2719 67.3123 37.3757L67.8034 37.442C69.746 37.7043 70.9139 39.7348 70.1639 41.5459L70.0111 41.9149C69.708 42.6468 69.708 43.4692 70.0111 44.2011L70.1639 44.5701C70.9139 46.3812 69.746 48.4117 67.8034 48.674L67.3123 48.7403C66.5432 48.8441 65.8447 49.2431 65.3647 49.8529L65.036 50.2703C63.8399 51.7896 61.5375 51.7896 60.3413 50.2703L60.0127 49.8529C59.5326 49.2431 58.8341 48.8441 58.065 48.7403L57.574 48.674C55.6313 48.4117 54.4634 46.3812 55.2135 44.5701L55.3663 44.2011C55.6694 43.4692 55.6694 42.6468 55.3663 41.9149L55.2135 41.5459C54.4634 39.7348 55.6313 37.7043 57.574 37.442L58.065 37.3757C58.8341 37.2719 59.5326 36.8729 60.0127 36.2631L60.3413 35.8457Z" fill="#500E29"/>
<path d="M40.2259 70.01C43.3599 69.7666 44.2414 72.1967 46.2742 73.9585C49.4853 76.7426 53.799 76.6373 57.0024 73.898C59.1727 72.0415 60.0812 69.4705 63.4824 70.0231C65.1658 70.2968 66.9891 73.0743 68.3589 74.1703C70.8324 76.1492 74.3674 76.6058 77.1802 75.0861C78.7838 74.2203 79.7514 72.7664 81.0261 71.5244C82.9985 69.6034 84.5648 69.5982 86.0117 70.3915V66.1865C83.6782 65.6917 81.3743 66.293 79.4199 67.7772C78.3405 68.5969 77.3099 70.1705 76.174 71.0599C74.2286 72.5822 72.1598 72.3007 70.3634 70.7402C67.2191 68.0101 66.479 65.5865 61.4509 66.0838C56.2545 66.5983 55.5285 72.6599 50.6521 71.9757C49.7809 71.8533 48.2454 70.6428 47.6594 69.9771C47.5425 69.8442 47.5194 69.656 47.4885 69.4889L47.2457 69.6139C47.1788 68.9758 46.6533 68.7837 46.2678 68.4364C46.0712 68.2601 45.8283 67.9337 45.6343 67.7772C42.2292 65.0273 38.044 65.6194 34.9807 68.5166C33.8383 69.5968 32.1859 71.8125 30.5964 71.9888C30.3921 72.0112 30.198 72.0231 30.0117 72.0283V75.99C30.3124 75.9782 30.6285 75.9558 30.9652 75.9189C35.4869 75.4348 36.8888 70.2679 40.2272 70.0087L40.2259 70.01Z" fill="#FFF4FF"/>
<path d="M41.1546 56.1819C42.9622 56.7285 43.658 58.201 44.9006 59.3662C48.4791 62.7231 53.1641 62.9558 56.8303 59.5754C58.1055 58.3998 59.0446 56.6932 60.826 56.1819C65.0611 54.967 66.5417 59.8827 69.9084 61.3029C72.9585 62.5897 76.0949 62.0352 78.5892 59.9507C79.9808 58.7869 81.2234 56.7717 82.9616 56.2146C84.1898 55.8223 85.1668 55.9321 86.0117 56.3257V52.2235C81.6746 51.2793 79.8382 53.4658 76.9712 56.1767C71.712 61.1486 70.153 55.5686 66.4057 53.2971C63.7924 51.7135 60.7175 51.6546 58.0506 53.1467C56.2548 54.151 55.2333 55.8589 53.6716 57.1378C53.5395 57.2464 52.7234 57.8597 52.6658 57.8858C52.5102 57.9552 50.921 58.0715 50.6594 58.0572C48.262 57.929 47.1332 55.732 45.4996 54.3236C42.7974 51.9946 39.2071 51.2845 35.9634 53.0316C33.3933 54.4165 31.8918 57.8989 29.0117 58.0728V61.9764C30.4465 61.9411 31.8761 61.5278 33.1697 60.6987C35.8862 58.9542 37.2674 55.0037 41.1559 56.1819H41.1546Z" fill="#FFF4FF"/>
<path d="M40.2061 41.999C42.8677 42.1465 44.5222 45.4805 46.6698 46.818C49.3327 48.477 53.1152 48.3571 55.663 46.5136C58.2527 44.6384 59.6914 41.0014 63.5431 42.2045C65.267 42.7435 66.4925 44.8822 67.8566 46.0286C70.7929 48.4942 75.1718 48.676 78.2375 46.3304C79.8502 45.097 81.4563 42.3429 83.5254 42.0385C84.5495 41.8883 85.3434 42.0108 86.0117 42.306V38.1762C85.8208 38.1419 85.6246 38.1103 85.4166 38.0865C80.3877 37.5173 79.4133 40.0882 76.3005 42.7975C74.2615 44.5725 72.0563 44.4856 70.0827 42.7303C67.1294 40.1014 66.108 37.7202 61.3838 38.0457C56.1665 38.4054 54.771 44.1298 50.9257 44.1113C47.3041 44.0942 45.6732 38.4845 40.8522 38.0523C36.0797 37.6253 34.9954 39.8734 32.0291 42.6012C31.1175 43.4393 30.079 43.9716 29.0117 44.0691V48C30.5786 47.9512 32.1389 47.4452 33.5083 46.4622C35.8665 44.7676 36.85 41.8131 40.2074 41.999H40.2061Z" fill="#FFF4FF"/>
</svg>
